<?xml version="1.0" encoding="iso-8859-1"?>
<!-- Uploaded to: SVG Repo, www.svgrepo.com, Generator: SVG Repo Mixer Tools -->
<!DOCTYPE svg PUBLIC "-//W3C//DTD SVG 1.1//EN" "http://www.w3.org/Graphics/SVG/1.1/DTD/svg11.dtd">
<svg fill="#000000" height="800px" width="800px" version="1.1" id="Capa_1" xmlns="http://www.w3.org/2000/svg" xmlns:xlink="http://www.w3.org/1999/xlink" 
	 viewBox="0 0 370.164 370.164" xml:space="preserve">
<path d="M323.592,309.011L216.745,81.129c9.33-8.543,15.191-20.816,15.191-34.433C231.937,20.948,210.989,0,185.24,0
	s-46.696,20.948-46.696,46.696c0,13.509,5.772,25.69,14.973,34.224L46.576,309.004c-1.301,2.587-4.815,9.697-4.815,15.069
	c0,14.746,15.29,25.753,48.118,34.637c27.292,7.387,61.102,11.454,95.204,11.454s67.912-4.067,95.204-11.454
	c32.828-8.884,48.118-19.891,48.118-34.637C328.404,322.72,328.403,318.619,323.592,309.011z M136.253,188.407l86.009-24.844
	l17.028,36.317l-125.405,36.233L136.253,188.407z M96.95,272.233l155.234-44.852l17.026,36.313l-194.627,56.24L96.95,272.233z
	 M185.24,93.393c1.36,0,2.703-0.071,4.034-0.186l20.093,42.854l-56.179,16.227l27.712-59.104
	C182.331,93.316,183.776,93.393,185.24,93.393z M185.082,340.164c-22.003,0-41.422-1.718-57.775-4.238l154.798-44.731l14.052,29.971
	C282.96,328.308,242.922,340.164,185.082,340.164z"/>
</svg>